<?xml version="1.0" encoding="UTF-8"?>
<!DOCTYPE svg PUBLIC "-//W3C//DTD SVG 1.1//EN" "http://www.w3.org/Graphics/SVG/1.1/DTD/svg11.dtd">
<!-- Creator: CorelDRAW 2020 (64-Bit) -->
<svg xmlns="http://www.w3.org/2000/svg" xml:space="preserve" width="5.074mm" height="4.779mm" version="1.1" style="shape-rendering:geometricPrecision; text-rendering:geometricPrecision; image-rendering:optimizeQuality; fill-rule:evenodd; clip-rule:evenodd"
viewBox="0 0 9.75 9.18"
 xmlns:xlink="http://www.w3.org/1999/xlink"
 xmlns:xodm="http://www.corel.com/coreldraw/odm/2003">
 <defs>
  <style type="text/css">
   <![CDATA[
    .fil0 {fill:black}
   ]]>
  </style>
 </defs>
 <g id="Layer_x0020_1">
  <metadata id="CorelCorpID_0Corel-Layer"/>
  <polygon class="fil0" points="5.5,5.61 5.52,5.69 5.52,5.78 5.69,6.61 6.14,7.27 6.82,7.73 7.63,7.92 8.44,7.73 9.13,7.27 9.58,6.61 9.75,5.78 9.58,4.97 9.13,4.31 8.44,3.86 7.63,3.7 7.24,3.74 6.88,3.84 6.52,4.01 6.24,4.23 6.06,4.19 5.93,4.06 5.89,3.91 6.33,3.57 6.67,3.14 6.88,2.65 6.95,2.12 6.78,1.3 6.33,0.6 5.67,0.15 4.86,0 4.04,0.15 3.38,0.6 2.93,1.3 2.76,2.12 2.83,2.7 3.06,3.23 3.46,3.66 3.93,3.97 3.86,4.18 3.74,4.23 3.59,4.27 3.27,4.04 2.93,3.86 2.53,3.74 2.1,3.7 1.28,3.86 0.6,4.31 0.15,4.97 -0,5.78 0.15,6.61 0.6,7.27 1.28,7.73 2.1,7.92 2.93,7.73 3.59,7.27 4.04,6.61 4.21,5.78 4.21,5.61 4.51,6.03 4.59,6.97 4.4,8.14 3.93,9.18 5.76,9.18 5.33,8.14 5.16,6.97 5.2,6.03 "/>
 </g>
</svg>
