<?xml version="1.0" encoding="UTF-8"?>
<!DOCTYPE svg PUBLIC "-//W3C//DTD SVG 1.1//EN" "http://www.w3.org/Graphics/SVG/1.1/DTD/svg11.dtd">
<!-- Creator: CorelDRAW 2020 (64-Bit) -->
<svg xmlns="http://www.w3.org/2000/svg" xml:space="preserve" width="5.2673mm" height="7.214mm" version="1.1" style="shape-rendering:geometricPrecision; text-rendering:geometricPrecision; image-rendering:optimizeQuality; fill-rule:evenodd; clip-rule:evenodd"
viewBox="0 0 12.57 17.22"
 xmlns:xlink="http://www.w3.org/1999/xlink"
 xmlns:xodm="http://www.corel.com/coreldraw/odm/2003">
 <defs>
  <style type="text/css">
   <![CDATA[
    .fil0 {fill:red}
   ]]>
  </style>
 </defs>
 <g id="Layer_x0020_1">
  <metadata id="CorelCorpID_0Corel-Layer"/>
  <polygon class="fil0" points="12.57,8.56 11.65,7.51 10.76,6.48 9.94,5.43 9.12,4.35 8.36,3.26 7.67,2.17 6.98,1.08 6.32,0 5.76,1.02 5.07,2.1 4.34,3.19 3.55,4.24 2.76,5.33 1.87,6.42 0.95,7.51 -0,8.56 0.85,9.58 1.67,10.57 2.53,11.62 3.29,12.67 4.08,13.73 4.84,14.85 5.6,16.03 6.32,17.22 6.98,16.13 7.7,15.04 8.42,13.92 9.21,12.8 10.01,11.75 10.83,10.63 11.69,9.58 "/>
 </g>
</svg>
