<?xml version="1.0" encoding="UTF-8"?>
<!DOCTYPE svg PUBLIC "-//W3C//DTD SVG 1.1//EN" "http://www.w3.org/Graphics/SVG/1.1/DTD/svg11.dtd">
<!-- Creator: CorelDRAW 2020 (64-Bit) -->
<svg xmlns="http://www.w3.org/2000/svg" xml:space="preserve" width="4.0019mm" height="5.0531mm" version="1.1" style="shape-rendering:geometricPrecision; text-rendering:geometricPrecision; image-rendering:optimizeQuality; fill-rule:evenodd; clip-rule:evenodd"
viewBox="0 0 6.1 7.71"
 xmlns:xlink="http://www.w3.org/1999/xlink"
 xmlns:xodm="http://www.corel.com/coreldraw/odm/2003">
 <defs>
  <style type="text/css">
   <![CDATA[
    .fil0 {fill:red}
   ]]>
  </style>
 </defs>
 <g id="Layer_x0020_1">
  <metadata id="CorelCorpID_0Corel-Layer"/>
  <polygon class="fil0" points="2.92,1.81 2.92,1.47 2.8,0.88 2.46,0.42 1.96,0.1 1.41,0 0.86,0.13 0.42,0.45 0.12,0.94 -0,1.54 0.12,2.28 0.48,3.06 0.95,3.85 1.51,4.66 2.07,5.47 2.56,6.25 2.89,7.02 3.04,7.71 3.18,7.02 3.54,6.25 4.03,5.47 4.59,4.66 5.14,3.85 5.62,3.06 5.97,2.28 6.1,1.54 5.98,0.94 5.68,0.45 5.22,0.13 4.69,0 4.12,0.1 3.64,0.42 3.28,0.88 3.15,1.47 3.15,1.81 3.04,1.87 "/>
 </g>
</svg>
