<?xml version="1.0" encoding="UTF-8"?>
<!DOCTYPE svg PUBLIC "-//W3C//DTD SVG 1.1//EN" "http://www.w3.org/Graphics/SVG/1.1/DTD/svg11.dtd">
<!-- Creator: CorelDRAW 2020 (64-Bit) -->
<svg xmlns="http://www.w3.org/2000/svg" xml:space="preserve" width="4.0612mm" height="5.2998mm" version="1.1" style="shape-rendering:geometricPrecision; text-rendering:geometricPrecision; image-rendering:optimizeQuality; fill-rule:evenodd; clip-rule:evenodd"
viewBox="0 0 6.28 8.19"
 xmlns:xlink="http://www.w3.org/1999/xlink"
 xmlns:xodm="http://www.corel.com/coreldraw/odm/2003">
 <defs>
  <style type="text/css">
   <![CDATA[
    .fil0 {fill:black}
   ]]>
  </style>
 </defs>
 <g id="Layer_x0020_1">
  <metadata id="CorelCorpID_0Corel-Layer"/>
  <polygon class="fil0" points="4.15,8.19 2.1,8.19 2.64,7.16 2.87,6.11 2.86,5.15 2.55,4.42 2.37,4.42 2.58,4.85 2.66,5.32 2.54,5.85 2.22,6.26 1.78,6.53 1.28,6.64 0.79,6.53 0.38,6.23 0.11,5.77 -0,5.24 0.14,4.59 0.49,3.88 0.96,3.16 1.52,2.46 2.1,1.76 2.61,1.11 3.01,0.53 3.24,0 3.42,0.52 3.81,1.09 4.3,1.75 4.85,2.45 5.38,3.14 5.83,3.88 6.15,4.56 6.28,5.24 6.17,5.77 5.9,6.23 5.49,6.53 5,6.64 4.5,6.53 4.04,6.26 3.72,5.85 3.62,5.32 3.69,4.85 3.91,4.42 3.71,4.42 3.42,5.15 3.39,6.11 3.62,7.16 "/>
 </g>
</svg>
